<?xml version="1.0" encoding="UTF-8" standalone="no"?>
<svg width="158px" height="46px" viewBox="0 0 158 46" version="1.1" xmlns="http://www.w3.org/2000/svg" xmlns:xlink="http://www.w3.org/1999/xlink">
    <!-- Generator: Sketch 39.1 (31720) - http://www.bohemiancoding.com/sketch -->
    <title>Group 4</title>
    <desc>Created with Sketch.</desc>
    <defs>
        <rect id="path-1" x="109" y="0" width="15" height="15" rx="2"></rect>
        <mask id="mask-2" maskContentUnits="userSpaceOnUse" maskUnits="objectBoundingBox" x="0" y="0" width="15" height="15" fill="white">
            <use xlink:href="#path-1"></use>
        </mask>
        <rect id="path-3" x="106" y="4" width="15" height="15" rx="2"></rect>
        <mask id="mask-4" maskContentUnits="userSpaceOnUse" maskUnits="objectBoundingBox" x="0" y="0" width="15" height="15" fill="white">
            <use xlink:href="#path-3"></use>
        </mask>
        <rect id="path-5" x="109" y="0" width="15" height="15" rx="2"></rect>
        <mask id="mask-6" maskContentUnits="userSpaceOnUse" maskUnits="objectBoundingBox" x="0" y="0" width="15" height="15" fill="white">
            <use xlink:href="#path-5"></use>
        </mask>
        <rect id="path-7" x="106" y="4" width="15" height="15" rx="2"></rect>
        <mask id="mask-8" maskContentUnits="userSpaceOnUse" maskUnits="objectBoundingBox" x="0" y="0" width="15" height="15" fill="white">
            <use xlink:href="#path-7"></use>
        </mask>
    </defs>
    <g id="Symbols" stroke="none" stroke-width="1" fill="none" fill-rule="evenodd">
        <g id="Group-4" transform="translate(1.000000, 1.000000)">
            <g id="Group-3" stroke="#5A5A5A">
                <use id="Rectangle-13" mask="url(#mask-2)" stroke-width="2" xlink:href="#path-1"></use>
                <use id="Rectangle-13" mask="url(#mask-4)" stroke-width="2" fill="#FFFFFF" xlink:href="#path-3"></use>
                <path d="M142,2 L156.261252,16.2612518" id="Path-2" stroke-linecap="round"></path>
                <path d="M142,2 L156.261252,16.2612518" id="Path-2" stroke-linecap="round" transform="translate(149.130626, 9.130626) scale(-1, 1) translate(-149.130626, -9.130626) "></path>
                <path d="M69,9 L85.5075741,9" id="Path-3" stroke-linecap="round"></path>
                <path d="M77,0 L77,16.5075741" id="Path-3" stroke-linecap="round"></path>
                <path d="M44.5,15 C49.1944204,15 53,11 53,9.5 C53,8 49.1944204,4 44.5,4 C39.8055796,4 36,8 36,9.5 C36,11 39.8055796,15 44.5,15 Z" id="Oval-4"></path>
                <circle id="Oval-5" cx="44.5" cy="9.5" r="4.5"></circle>
                <path d="M17,12.5 C17,11 13.1944204,7 8.5,7 C3.80557963,7 2.08681095e-09,11 0,12.5" id="Oval-4" transform="translate(8.500000, 9.750000) scale(1, -1) translate(-8.500000, -9.750000) "></path>
                <path d="M17,12 C17,12 15,14 12,14" id="Path-8" transform="translate(14.500000, 13.000000) scale(-1, 1) translate(-14.500000, -13.000000) "></path>
                <path d="M12,13 C12,13 11,14 8,15" id="Path-9" transform="translate(10.000000, 14.000000) scale(-1, 1) translate(-10.000000, -14.000000) "></path>
                <path d="M15,10 C15,10 16,11 19,11" id="Path-10"></path>
            </g>
            <g id="Group-3-Copy" transform="translate(0.000000, 26.000000)" stroke="#5FACFE">
                <use id="Rectangle-13" mask="url(#mask-6)" stroke-width="2" xlink:href="#path-5"></use>
                <use id="Rectangle-13" mask="url(#mask-8)" stroke-width="2" fill="#FFFFFF" xlink:href="#path-7"></use>
                <path d="M142,2 L156.261252,16.2612518" id="Path-2" stroke-linecap="round"></path>
                <path d="M142,2 L156.261252,16.2612518" id="Path-2" stroke-linecap="round" transform="translate(149.130626, 9.130626) scale(-1, 1) translate(-149.130626, -9.130626) "></path>
                <path d="M69,9 L85.5075741,9" id="Path-3" stroke-linecap="round"></path>
                <path d="M77,0 L77,16.5075741" id="Path-3" stroke-linecap="round"></path>
                <path d="M44.5,15 C49.1944204,15 53,11 53,9.5 C53,8 49.1944204,4 44.5,4 C39.8055796,4 36,8 36,9.5 C36,11 39.8055796,15 44.5,15 Z" id="Oval-4"></path>
                <circle id="Oval-5" cx="44.5" cy="9.5" r="4.5"></circle>
                <path d="M17,12.5 C17,11 13.1944204,7 8.5,7 C3.80557963,7 2.08681095e-09,11 0,12.5" id="Oval-4" transform="translate(8.500000, 9.750000) scale(1, -1) translate(-8.500000, -9.750000) "></path>
                <path d="M17,12 C17,12 15,14 12,14" id="Path-8" transform="translate(14.500000, 13.000000) scale(-1, 1) translate(-14.500000, -13.000000) "></path>
                <path d="M12,13 C12,13 11,14 8,15" id="Path-9" transform="translate(10.000000, 14.000000) scale(-1, 1) translate(-10.000000, -14.000000) "></path>
                <path d="M15,10 C15,10 16,11 19,11" id="Path-10"></path>
            </g>
        </g>
    </g>
</svg>